<svg width="160" height="101" viewBox="0 0 160 101" fill="none" xmlns="http://www.w3.org/2000/svg">
<path fill-rule="evenodd" clip-rule="evenodd" d="M63.9438 44.8235C77.5408 47.089 76.5378 66.1649 65.4954 72.3322C59.0135 75.9507 51.271 75.1404 45.8039 70.0824C39.7783 64.511 38.9719 56.2199 42.8953 49.1696C44.1874 46.851 45.5797 44.5541 46.917 42.2571C47.7961 40.7487 48.6732 39.2384 49.5326 37.7182C49.8393 37.1774 50.1461 36.6326 50.4411 36.0839C50.563 35.8578 50.7381 35.5608 50.8325 35.3189L50.919 34.9846L51.1353 34.8273C51.3104 34.6011 51.4952 34.2786 51.6388 34.0466C52.0164 33.4408 52.3802 32.8273 52.744 32.2137C53.7647 30.491 54.7676 28.7545 55.7647 27.0199C57.3301 24.2982 58.8581 21.5489 60.4314 18.835C61.9909 16.1447 63.5642 13.4622 65.0981 10.7582C66.9153 7.55853 68.5751 5.63127 71.7275 3.72761C74.9075 1.81019 79.3776 1.07665 83.0256 1.77479C86.5773 2.45523 89.5055 3.88494 91.9697 6.5595C94.1093 8.88205 95.6098 11.8005 97.187 14.5163L101.966 22.7465L101.982 22.776C102.912 24.6266 104.066 26.4968 105.12 28.2864C106.139 30.015 107.185 31.7437 108.163 33.4959C110.204 37.1577 112.43 40.7113 114.446 44.3889C115.48 46.2729 116.688 48.0408 117.659 49.9641C118.802 52.2257 119.524 54.5011 119.614 57.0517C119.781 61.864 117.927 66.9162 114.267 70.1296C106.558 76.9005 95.1615 75.8524 89.2086 67.3862C87.8379 65.4353 86.9214 63.1344 86.4711 60.8001C85.7513 57.0734 86.1663 52.9121 88.298 49.6928C90.1643 46.8746 92.9628 45.3328 96.1605 44.8156C95.9265 44.381 95.6846 43.9503 95.4446 43.5196C94.5754 41.968 93.6865 40.4262 92.7956 38.8883C91.421 36.5166 90.0267 34.1567 88.6481 31.7869C87.2774 29.4329 85.9401 27.0573 84.5831 24.6974C83.824 23.3817 83.0649 22.0661 82.298 20.7544C82.298 21.0533 82.2999 21.3522 82.2999 21.6492C82.3019 24.1782 82.3137 26.7072 82.3255 29.2382C82.3373 32.0013 82.3511 34.7663 82.353 37.5294C82.353 38.495 82.3511 39.4586 82.3412 40.4222C82.3373 40.8824 82.353 41.4626 82.294 41.9169C82.0128 44.0624 79.3068 44.4872 78.1367 42.8569L78.0718 42.7664L78.0285 42.6642C77.7001 41.9208 77.7335 38.7821 77.7237 37.9089C77.6961 35.0751 77.7178 32.2393 77.7374 29.4054C77.7571 26.8665 77.7807 24.3277 77.7925 21.7908C77.7945 21.4702 77.7964 21.1477 77.8004 20.8232C77.5093 21.3168 77.2183 21.8124 76.9292 22.306C75.0668 25.4801 73.2143 28.6581 71.3696 31.84C69.5584 34.963 67.7511 38.0899 65.9654 41.2266C65.342 42.322 64.7206 43.4193 64.1129 44.5226C64.0617 44.617 64.0047 44.7173 63.9438 44.8235Z" fill="white"/>
<path fill-rule="evenodd" clip-rule="evenodd" d="M66.1799 77.3813H70.469L73.236 82.0461L75.9499 77.3813H80.1919L75.002 85.6016V91.4188H71.356V85.5761L67.2635 79.0962V80.6026H63.407V91.4188H59.7609V80.6026H55.9045V77.3813H66.1799ZM17.255 88.4689H12.7495L11.6817 91.4188H7.79175L13.2589 77.3813H16.7279L22.3465 91.4188H18.3937L17.255 88.4689ZM32.5374 83.8907C32.9759 84.1326 33.3653 84.4532 33.68 84.8661C34.1874 85.5328 34.4234 86.3037 34.4234 87.1395C34.4234 87.8239 34.2562 88.4788 33.9514 89.0923C33.6485 89.704 33.2218 90.2271 32.6652 90.6224C32.0713 91.0432 31.3712 91.2497 30.6554 91.3284C29.6367 91.4385 28.4646 91.4188 27.438 91.4188H22.494V77.3813H28.2089C28.9759 77.3813 29.8451 77.3892 30.6023 77.519C31.1627 77.6153 31.6878 77.8179 32.1598 78.1365C32.6416 78.4629 33.0231 78.8936 33.3142 79.3951C33.6308 79.9398 33.7763 80.5436 33.7763 81.1748C33.7763 81.875 33.5895 82.5279 33.208 83.1178C33.0172 83.4109 32.7931 83.6705 32.5374 83.8907ZM35.5404 91.4188V77.3813H39.1864V91.4188H35.5404ZM44.3802 88.2054H50.9172V91.4188H40.7361V77.4914H44.3802V88.2054ZM51.6999 91.4188V77.3813H55.3459V91.4188H51.6999ZM85.1123 77.3813H90.4162C91.2402 77.3813 92.2491 77.4108 93.0436 77.6468C93.8892 77.9005 94.6188 78.3548 95.2265 78.9959C95.8499 79.6527 96.2924 80.4334 96.5874 81.2889C96.9374 82.3076 97.0417 83.4482 97.0417 84.522C97.0417 85.5053 96.9374 86.5318 96.6169 87.466C96.2944 88.4001 95.8007 89.2634 95.0888 89.9576C94.5165 90.5181 93.7948 90.8819 93.0377 91.1199C92.2668 91.3638 91.368 91.4188 90.5637 91.4188H85.1123V77.3813ZM101.907 80.6026V82.4767H108.444V85.6783H101.907V88.2054H109.172V91.4188H98.2609V77.3813H108.926V80.6026H101.907ZM109.659 86.2133L113.199 85.8671L113.282 86.3293C113.386 86.9016 113.596 87.5427 114.053 87.934C114.489 88.3077 115.064 88.4178 115.622 88.4178C116.143 88.4178 116.802 88.347 117.219 87.9989C117.494 87.7688 117.681 87.4935 117.681 87.1258C117.681 86.9527 117.64 86.7993 117.528 86.6636C117.37 86.4768 117.02 86.3332 116.796 86.2565C116.147 86.0323 115.408 85.8632 114.743 85.698C113.714 85.4424 112.367 85.0294 111.563 84.3096C110.668 83.5072 110.19 82.5003 110.19 81.2968C110.19 80.5239 110.414 79.81 110.835 79.1611C111.29 78.4649 111.929 77.9732 112.69 77.6488C113.555 77.281 114.515 77.1571 115.449 77.1571C116.851 77.1571 118.381 77.4088 119.471 78.3607C120.44 79.2083 120.9 80.3135 120.94 81.5937L120.955 82.0952L117.372 82.2624L117.301 81.812C117.239 81.4148 117.099 80.9487 116.769 80.6871C116.417 80.4098 115.854 80.3567 115.423 80.3567C114.926 80.3567 114.338 80.4275 113.925 80.7284C113.783 80.8327 113.722 80.9487 113.722 81.1237C113.722 81.2987 113.803 81.4207 113.925 81.5288C114.318 81.8514 115.636 82.1719 116.129 82.2879C117.085 82.5141 118.214 82.8111 119.089 83.2673C119.768 83.6233 120.328 84.1228 120.727 84.7796C121.156 85.4837 121.313 86.2959 121.313 87.114C121.313 87.9694 121.075 88.762 120.615 89.4857C120.133 90.2467 119.455 90.7895 118.627 91.1376C117.685 91.5329 116.611 91.6568 115.598 91.6568C114.139 91.6568 112.611 91.3716 111.476 90.3903C110.387 89.4483 109.887 88.1307 109.72 86.7285L109.659 86.2133ZM122.43 91.4188V77.3813H126.076V91.4188H122.43ZM136.629 87.5151V86.6321H133.614V83.4227H140.301V89.3264L140.145 89.4778C139.437 90.1622 138.488 90.646 137.575 90.9999C136.501 91.4169 135.378 91.643 134.226 91.643C132.887 91.643 131.581 91.3834 130.407 90.7227C129.296 90.0992 128.466 89.1985 127.915 88.0481C127.361 86.8878 127.105 85.6469 127.105 84.3627C127.105 83.0116 127.376 81.698 128.021 80.5042C128.645 79.3479 129.559 78.4747 130.727 77.869C131.754 77.338 132.928 77.1571 134.073 77.1571C135.494 77.1571 137.007 77.4049 138.173 78.2722C139.219 79.0509 139.847 80.1188 140.116 81.3912L140.224 81.9005L136.653 82.5672L136.527 82.1227C136.381 81.6114 136.11 81.1985 135.679 80.8877C135.209 80.5455 134.645 80.4295 134.073 80.4295C133.162 80.4295 132.348 80.6832 131.719 81.3597C131.011 82.1188 130.838 83.2535 130.838 84.2526C130.838 85.3126 131.007 86.5653 131.738 87.3912C132.356 88.0855 133.133 88.3785 134.051 88.3785C134.56 88.3785 135.052 88.2762 135.524 88.0894C135.909 87.936 136.285 87.7492 136.629 87.5151ZM149.63 84.7835V77.3813H153.09V91.4188H149.658L145.204 84.2152V91.4188H141.74V77.3813H145.089L149.63 84.7835ZM16.0259 85.2555L14.9678 82.404L13.9334 85.2555H16.0259ZM26.1381 80.5652V82.5633H27.3535C27.9002 82.5633 28.6573 82.5928 29.206 82.52C29.4813 82.4885 29.7684 82.404 29.9671 82.2014C30.146 82.0205 30.207 81.7983 30.207 81.5465C30.207 81.3105 30.1598 81.0785 29.9985 80.8956C29.8353 80.7088 29.5659 80.6399 29.3181 80.6104C28.6888 80.5278 27.7841 80.5652 27.1411 80.5652H26.1381ZM26.1381 85.7373V88.2054H28.0732C28.5373 88.2054 29.324 88.233 29.7743 88.1425C30.0379 88.0914 30.2679 87.9793 30.4489 87.7806C30.6377 87.5702 30.6888 87.289 30.6888 87.0156C30.6888 86.7678 30.6455 86.5181 30.5 86.3116C30.3564 86.109 30.146 85.9851 29.9179 85.9025C29.44 85.7314 28.262 85.7373 27.7507 85.7373H26.1381ZM88.7564 80.6026V88.2054H90.2097C90.6424 88.2054 91.25 88.2054 91.6729 88.0992C91.9816 88.0206 92.2805 87.8888 92.5205 87.6744C92.7879 87.4345 92.961 86.9881 93.0632 86.6518C93.2717 85.9694 93.3071 85.1218 93.3071 84.4119C93.3071 83.7472 93.2776 82.8897 93.0672 82.2525C92.9393 81.8691 92.7505 81.4856 92.4536 81.2044C92.1802 80.9448 91.8439 80.7973 91.4703 80.7166C90.9137 80.5868 89.9973 80.6026 89.425 80.6026H88.7564Z" fill="white"/>
<path d="M21.5951 90.9095H18.7415L17.6029 87.9576H12.3914L11.3255 90.9095H8.53491L13.6068 77.8867H16.3836L21.5951 90.9095ZM16.7572 85.761L14.9617 80.9271L13.2095 85.761H16.7572Z" stroke="white" stroke-width="2.07868" stroke-miterlimit="2.61313"/>
<path d="M23.0013 77.8867H28.2089C29.2413 77.8867 30.0122 77.93 30.5157 78.0185C31.0191 78.103 31.4734 78.284 31.8746 78.5554C32.2738 78.8267 32.6081 79.1906 32.8736 79.6488C33.1372 80.1011 33.267 80.6085 33.267 81.1729C33.267 81.7766 33.1077 82.3312 32.7812 82.8406C32.4508 83.3479 32.0064 83.7334 31.4479 83.9871C32.2384 84.2211 32.8481 84.6144 33.2768 85.1729C33.6996 85.7314 33.9159 86.3883 33.9159 87.1376C33.9159 87.7256 33.7763 88.3018 33.497 88.8642C33.2217 89.4227 32.8441 89.8711 32.3702 90.2054C31.8962 90.5457 31.3043 90.7482 30.6003 90.821C30.1637 90.8721 29.1115 90.9016 27.438 90.9095H23.0013V77.8867V77.8867ZM25.6307 80.0539V83.0687H27.3534C28.378 83.0687 29.0132 83.0569 29.263 83.0215C29.7153 82.9723 30.0712 82.815 30.3289 82.5554C30.5845 82.2938 30.7143 81.9595 30.7143 81.5446C30.7143 81.1375 30.6003 80.813 30.38 80.5574C30.1558 80.3076 29.8254 80.1562 29.3849 80.105C29.1312 80.0716 28.3819 80.0539 27.141 80.0539H25.6307ZM25.6307 85.228V88.7128H28.0732C29.0132 88.7128 29.615 88.6912 29.8726 88.64C30.2581 88.5633 30.5786 88.3903 30.8244 88.1189C31.0742 87.8436 31.1981 87.4758 31.1981 87.0137C31.1981 86.6164 31.1037 86.286 30.9129 86.0146C30.7242 85.7492 30.4488 85.5486 30.0889 85.4227C29.7291 85.2909 28.9503 85.228 27.7507 85.228H25.6307V85.228Z" stroke="white" stroke-width="2.07868" stroke-miterlimit="2.61313"/>
<path d="M36.0496 90.9095V77.8867H38.6789V90.9095H36.0496Z" stroke="white" stroke-width="2.07868" stroke-miterlimit="2.61313"/>
<path d="M41.2435 90.9108V77.9982H43.8729V88.7141H50.4098V90.9108H41.2435V90.9108Z" stroke="white" stroke-width="2.07868" stroke-miterlimit="2.61313"/>
<path d="M52.209 90.9095V77.8867H54.8383V90.9095H52.209Z" stroke="white" stroke-width="2.07868" stroke-miterlimit="2.61313"/>
<path d="M60.2682 90.9095V80.0932H56.4117V77.8867H66.7541V80.0932H62.8976V90.9095H60.2682V90.9095Z" stroke="white" stroke-width="2.07868" stroke-miterlimit="2.61313"/>
<path d="M71.8651 90.9095V85.4266L67.1021 77.8867H70.1798L73.2398 83.0471L76.2428 77.8867H79.2694L74.4945 85.4522V90.9095H71.8651V90.9095Z" stroke="white" stroke-width="2.07868" stroke-miterlimit="2.61313"/>
<path d="M85.6194 77.8867H90.4159C91.4995 77.8867 92.3294 77.9673 92.8977 78.1325C93.6588 78.3646 94.3117 78.7678 94.8565 79.344C95.4032 79.9182 95.8181 80.6222 96.1053 81.4521C96.3904 82.2821 96.534 83.3066 96.534 84.52C96.534 85.5958 96.3983 86.524 96.1348 87.2988C95.8044 88.2428 95.3363 89.0078 94.7345 89.5919C94.2763 90.0422 93.6627 90.3883 92.884 90.6342C92.3078 90.8151 91.5329 90.9095 90.5634 90.9095H85.6194V77.8867V77.8867ZM88.2487 80.0932V88.7128H90.2094C90.941 88.7128 91.47 88.6735 91.7965 88.5889C92.2232 88.4827 92.5792 88.3018 92.8584 88.052C93.1416 87.7983 93.3717 87.3834 93.5487 86.7993C93.7276 86.2133 93.8161 85.4188 93.8161 84.4099C93.8161 83.403 93.7276 82.6282 93.5487 82.0913C93.3717 81.5524 93.1259 81.1336 92.8033 80.8327C92.4867 80.5279 92.0796 80.3253 91.5841 80.2191C91.2202 80.1345 90.5005 80.0932 89.4247 80.0932H88.2487V80.0932Z" stroke="white" stroke-width="2.07868" stroke-miterlimit="2.61313"/>
<path d="M98.7682 90.9095V77.8867H108.418V80.0932H101.398V82.9841H107.934V85.169H101.398V88.7128H108.662V90.9095H98.7682V90.9095Z" stroke="white" stroke-width="2.07868" stroke-miterlimit="2.61313"/>
<path d="M110.226 86.6704L112.782 86.4207C112.939 87.284 113.252 87.9153 113.722 88.3204C114.196 88.7236 114.827 88.9261 115.622 88.9261C116.473 88.9261 117.113 88.7491 117.545 88.3892C117.972 88.0293 118.188 87.6105 118.188 87.1267C118.188 86.8219 118.1 86.5603 117.917 86.34C117.736 86.1237 117.417 85.933 116.961 85.7776C116.656 85.6714 115.958 85.4806 114.865 85.2053C113.451 84.8572 112.466 84.4344 111.901 83.931C111.097 83.2112 110.7 82.3341 110.7 81.2977C110.7 80.6369 110.886 80.0194 111.262 79.4393C111.64 78.8591 112.18 78.4186 112.888 78.1177C113.594 77.8168 114.446 77.6654 115.449 77.6654C117.083 77.6654 118.316 78.0253 119.136 78.7451C119.962 79.4648 120.395 80.4167 120.432 81.6104L117.803 81.7343C117.697 81.0656 117.457 80.5819 117.083 80.2908C116.711 79.9938 116.161 79.8503 115.423 79.8503C114.654 79.8503 114.057 80.0057 113.624 80.3203C113.354 80.5189 113.215 80.7864 113.215 81.1246C113.215 81.4334 113.345 81.6949 113.6 81.9191C113.929 82.1905 114.733 82.4796 116.013 82.7844C117.292 83.0834 118.236 83.398 118.853 83.7186C119.467 84.0411 119.95 84.4816 120.293 85.0441C120.635 85.6065 120.804 86.2968 120.804 87.1149C120.804 87.8602 120.601 88.5584 120.186 89.2152C119.771 89.8661 119.187 90.3539 118.43 90.6705C117.677 90.9891 116.727 91.1484 115.598 91.1484C113.95 91.1484 112.69 90.7688 111.809 90.0058C110.928 89.2447 110.399 88.1355 110.226 86.6704V86.6704Z" stroke="white" stroke-width="2.07868" stroke-miterlimit="2.61313"/>
<path d="M122.938 90.9095V77.8867H125.567V90.9095H122.938Z" stroke="white" stroke-width="2.07868" stroke-miterlimit="2.61313"/>
<path d="M134.124 86.1237V83.931H139.791V89.1129C139.237 89.6498 138.438 90.1198 137.392 90.5269C136.346 90.934 135.292 91.1366 134.226 91.1366C132.857 91.1366 131.671 90.8494 130.657 90.2811C129.644 89.7108 128.883 88.8927 128.373 87.8307C127.866 86.7668 127.612 85.6124 127.612 84.3636C127.612 83.0086 127.899 81.8011 128.468 80.7471C129.038 79.693 129.868 78.8847 130.961 78.3222C131.795 77.8857 132.832 77.6654 134.073 77.6654C135.695 77.6654 136.96 78.0037 137.87 78.6821C138.781 79.3586 139.365 80.2987 139.618 81.4963L137.015 81.984C136.834 81.3449 136.486 80.8454 135.978 80.4757C135.469 80.1079 134.836 79.9211 134.073 79.9211C132.934 79.9211 132.023 80.2849 131.347 81.0145C130.668 81.7422 130.33 82.8218 130.33 84.2535C130.33 85.7973 130.672 86.9575 131.359 87.7285C132.045 88.5033 132.942 88.8887 134.051 88.8887C134.602 88.8887 135.156 88.7825 135.711 88.5623C136.265 88.342 136.739 88.0805 137.138 87.7756V86.1237H134.124V86.1237Z" stroke="white" stroke-width="2.07868" stroke-miterlimit="2.61313"/>
<path d="M142.247 90.9095V77.8867H144.804L150.139 86.583V77.8867H152.582V90.9095H149.941L144.694 82.4256V90.9095H142.247Z" stroke="white" stroke-width="2.07868" stroke-miterlimit="2.61313"/>
<path d="M50.0851 97.8415L51.4518 98.2742C51.2434 99.0352 50.8973 99.5977 50.4095 99.9674C49.9238 100.337 49.3083 100.522 48.559 100.522C47.6347 100.522 46.8756 100.205 46.2797 99.5741C45.6819 98.9408 45.3829 98.0775 45.3829 96.9801C45.3829 95.8238 45.6819 94.9231 46.2817 94.282C46.8815 93.6409 47.6701 93.3203 48.6475 93.3203C49.4951 93.3203 50.1873 93.572 50.7222 94.0755C51.0349 94.3764 51.2729 94.8051 51.4322 95.3616L50.0398 95.694C49.9592 95.3321 49.7881 95.047 49.5246 94.8385C49.263 94.6301 48.9444 94.5258 48.5727 94.5258C48.0555 94.5258 47.6386 94.7127 47.3161 95.0804C46.9975 95.4501 46.8362 96.0499 46.8362 96.8798C46.8362 97.7609 46.9955 98.3882 47.3102 98.7619C47.6268 99.1355 48.0378 99.3204 48.5472 99.3204C48.9189 99.3204 49.2375 99.2024 49.5069 98.9625C49.7783 98.7245 49.971 98.3509 50.0851 97.8415V97.8415Z" stroke="white" stroke-width="0.899544" stroke-miterlimit="2.61313"/>
<path d="M52.3743 96.9664C52.3743 96.2564 52.4785 95.6586 52.6929 95.1768C52.8482 94.8228 53.0606 94.5062 53.334 94.2249C53.6093 93.9457 53.9102 93.7372 54.2386 93.5976C54.6712 93.4127 55.1708 93.3203 55.7371 93.3203C56.7617 93.3203 57.5838 93.6389 58.1993 94.2761C58.8168 94.9113 59.1236 95.7982 59.1236 96.9349C59.1236 98.0578 58.8188 98.9349 58.2091 99.5701C57.5995 100.205 56.7814 100.522 55.7568 100.522C54.7224 100.522 53.8984 100.205 53.2887 99.5741C52.6791 98.9408 52.3743 98.0736 52.3743 96.9664V96.9664ZM53.8197 96.9152C53.8197 97.7058 54.0026 98.3037 54.3664 98.7107C54.7302 99.1198 55.1944 99.3204 55.7568 99.3204C56.3133 99.3204 56.7716 99.1198 57.1334 98.7127C57.4933 98.3115 57.6723 97.7058 57.6723 96.9015C57.6723 96.1011 57.4972 95.5032 57.1492 95.1158C56.7991 94.7225 56.3369 94.5258 55.7568 94.5258C55.1727 94.5258 54.7047 94.7264 54.3507 95.1197C53.9967 95.515 53.8197 96.1129 53.8197 96.9152V96.9152Z" stroke="white" stroke-width="0.899544" stroke-miterlimit="2.61313"/>
<path d="M60.2072 100.406V93.4442H62.3075L63.5681 98.1896L64.8208 93.4442H66.929V100.406H65.6232V94.929L64.2367 100.406H62.8837L61.513 94.929V100.406H60.2072V100.406Z" stroke="white" stroke-width="0.899544" stroke-miterlimit="2.61313"/>
<path d="M68.3235 100.406V93.4442H70.5772C71.4307 93.4442 71.9872 93.4776 72.2468 93.5504C72.6461 93.6566 72.9784 93.8828 73.2478 94.2309C73.5173 94.5829 73.6529 95.0332 73.6529 95.5858C73.6529 96.0146 73.5763 96.3744 73.4209 96.6675C73.2655 96.9585 73.0689 97.1866 72.827 97.3518C72.5871 97.519 72.3452 97.6272 72.1013 97.6803C71.765 97.7471 71.2793 97.7806 70.6421 97.7806H69.7276V100.406H68.3235V100.406ZM69.7276 94.6242V96.5986H70.4966C71.0511 96.5986 71.4189 96.5632 71.6057 96.4905C71.7906 96.4177 71.9361 96.3017 72.0423 96.1483C72.1485 95.9949 72.1996 95.814 72.1996 95.6055C72.1996 95.3538 72.1269 95.1434 71.9774 94.9782C71.8319 94.813 71.6431 94.7087 71.4189 94.6714C71.2498 94.6399 70.9115 94.6242 70.4022 94.6242H69.7276V94.6242Z" stroke="white" stroke-width="0.899544" stroke-miterlimit="2.61313"/>
<path d="M81.0787 100.406H79.5526L78.9449 98.8287H76.1583L75.588 100.406H74.0973L76.8073 93.4442H78.292L81.0787 100.406V100.406ZM78.4926 97.6547L77.5329 95.0686L76.5949 97.6547H78.4926Z" stroke="white" stroke-width="0.899544" stroke-miterlimit="2.61313"/>
<path d="M81.8417 100.406V93.4442H83.2085L86.06 98.0932V93.4442H87.3658V100.406H85.9538L83.1495 95.871V100.406H81.8417Z" stroke="white" stroke-width="0.899544" stroke-miterlimit="2.61313"/>
<path d="M90.6755 100.406V97.4757L88.1288 93.4442H89.7748L91.411 96.2033L93.0158 93.4442H94.6343L92.0816 97.4875V100.406H90.6755V100.406Z" stroke="white" stroke-width="0.899544" stroke-miterlimit="2.61313"/>
<path d="M98.0681 100.404V93.5012H99.4742V99.2299H102.969V100.404H98.0681Z" stroke="white" stroke-width="0.899544" stroke-miterlimit="2.61313"/>
<path d="M104.009 100.404V93.5012H105.415V99.2299H108.91V100.404H104.009Z" stroke="white" stroke-width="0.899544" stroke-miterlimit="2.61313"/>
<path d="M114.365 97.8415L115.734 98.2742C115.525 99.0352 115.179 99.5977 114.692 99.9674C114.206 100.337 113.59 100.522 112.841 100.522C111.917 100.522 111.156 100.205 110.562 99.5741C109.964 98.9408 109.665 98.0775 109.665 96.9801C109.665 95.8238 109.964 94.9231 110.564 94.282C111.163 93.6409 111.95 93.3203 112.929 93.3203C113.777 93.3203 114.467 93.572 115.004 94.0755C115.317 94.3764 115.555 94.8051 115.712 95.3616L114.32 95.694C114.241 95.3321 114.07 95.047 113.807 94.8385C113.545 94.6301 113.224 94.5258 112.855 94.5258C112.338 94.5258 111.919 94.7127 111.598 95.0804C111.279 95.4501 111.118 96.0499 111.118 96.8798C111.118 97.7609 111.278 98.3882 111.59 98.7619C111.909 99.1355 112.32 99.3204 112.829 99.3204C113.201 99.3204 113.519 99.2024 113.789 98.9625C114.06 98.7245 114.253 98.3509 114.365 97.8415V97.8415Z" stroke="white" stroke-width="0.899544" stroke-miterlimit="2.61313"/>
<path fill-rule="evenodd" clip-rule="evenodd" d="M118.064 96.0291H160V95.272H118.064V96.0291ZM118.064 98.4303H160V97.6712H118.064V98.4303Z" fill="white"/>
</svg>
